<?xml version="1.0" encoding="UTF-8"?>
<svg xmlns="http://www.w3.org/2000/svg" viewBox="0 0 129.87 144.88">
  <defs>
    <style>
      .cls-1 {
        fill: none;
      }

      .cls-2 {
        fill: #231f20;
      }
    </style>
  </defs>
  <g id="Background">
    <rect class="cls-1" x=".87" y="3.88" width="128" height="128"/>
  </g>
  <g id="Portfolio">
    <path class="cls-2" d="M116.87,24.88H12.87c-6.6,0-12,4.63-12,10.29v20.44c9.23,13.87,26.64,23.28,46.5,23.28h35c19.86,0,37.27-9.41,46.5-23.28v-20.44c0-5.66-5.4-10.29-12-10.29Z"/>
    <path class="cls-2" d="M80.87,3.88h-32c-6.6,0-12,5.4-12,12v16c0,6.6,5.4,12,12,12h32c6.6,0,12-5.4,12-12V15.88c0-6.6-5.4-12-12-12ZM83.87,29.38c0,3.3-2.7,6-6,6h-26c-3.3,0-6-2.7-6-6v-11c0-3.3,2.7-6,6-6h26c3.3,0,6,2.7,6,6v11Z"/>
    <g>
      <path class="cls-1" d="M64.87,107.17c3.61,0,6.56-3.24,6.56-7.21v-11.09h-13.12v11.09c0,3.96,2.95,7.21,6.56,7.21Z"/>
      <g>
        <path class="cls-1" d="M64.87,103.88c3.67,0,6.67-3.67,6.67-8.16v-11.84h-13.34v11.84c0,4.49,3,8.16,6.67,8.16Z"/>
        <path class="cls-2" d="M82.37,83.88h-10.83v11.84c0,4.49-3,8.16-6.67,8.16s-6.67-3.67-6.67-8.16v-11.84h-10.83c-17.89,0-33.78-7.65-43.5-19.3v53.93c0,7.36,5.15,13.38,11.44,13.38h99.12c6.29,0,11.44-6.02,11.44-13.38v-53.93c-9.72,11.65-25.61,19.3-43.5,19.3Z"/>
      </g>
    </g>
  </g>
</svg>